<svg xmlns="http://www.w3.org/2000/svg" viewBox="-1 -1 26 26">
  <style>
    path { fill: #17202a; }
    @media (prefers-color-scheme: dark) { path { fill: #f6f8fa; } }
  </style>
  <path d="m21,21v3h-2v-3c0-1.103-.897-2-2-2H7c-1.103,0-2,.897-2,2v3h-2v-3c0-2.206,1.794-4,4-4h10c2.206,0,4,1.794,4,4Zm1-15v5h-2v4H4v-4h-2v-5h2v-1c0-1.654,1.346-3,3-3h4V0h2v2h4c1.654,0,3,1.346,3,3v1h2Zm-4-1c0-.552-.449-1-1-1H7c-.551,0-1,.448-1,1v8h12V5Zm-8.5,2c-.828,0-1.5.672-1.5,1.5s.672,1.5,1.5,1.5,1.5-.672,1.5-1.5-.672-1.5-1.5-1.5Zm5,0c-.828,0-1.5.672-1.5,1.5s.672,1.5,1.5,1.5,1.5-.672,1.5-1.5-.672-1.5-1.5-1.5Z"/>
</svg>
